MMMMMMMMMMMMMMMMMMMMMMMMMMMMMMMMMMMMMMMMMMMMMMMMMMMmddNMMMMMMMMM
MMMMMMMMMMMMMMMMMMMMMMMMMMMMMMMMMMMMMMMMMMMMMMdo:.     `:omMMMMM
MMMMMMMMMMMMMMMMMMMMMMMMMMMMMMMMMMMMMMMMMMMMs-            `-yNMM
MMMMMMMMMMMMMMMMMMMMMMMMMMMMMMMMMMMMMMMMMMm-     -ohmmhs/.   .yM
MMMMMMMMMMMMMMMMMMMMMMMMMMMMMMMMMMMMMMMMMm.    .yNmhyymMMNs`   -
MMMMMMMMMMMMMMMMMMMMMMMMMMNMMMMMMMMMMMMMm.   `oh+.    `-sNMh`   
MMMMMMMMMMMMMMMMMMMMMMMMMd-hMMMMMMMMMMMM/   -y/        :`/MMs   
MMMMMMMMMMMMMMMMMNyMMMMMMd``yMMMMMMMMMMd    -`        /m:`dMN-  
MMMMMMMMMMMMMMMMMm sMMMMMd` `yMMMMMMMMMs              `.` hMM/  
MMMMMMMMMMM+hMMMMm `sMMMMd`  `hMMMMMMMMo      `      `+yy-hMM+  
MMMMMMMMMMM:.mMMMm   dMMMd`   .mMMMMMMM/     +Nh:   /mMNd-NMM/  
MMMMMMMMMMM: /MMMm   -MMMd`    yMMMMMMM+     mMN-  +Nd/.`+Mm+   
MMh+::omMMM: `hMMm    hMMd`    /MMMMMMMo    -NMy  -Ns`   -.     
Ms     `dMM-  oMMm    +MMd`    -NMMMMMMh    .NM/  /m.        `` 
Ms     `dMM-  +MMm    :MMd`    .NMMMMMMN.    dM+  -d.     .odN- 
MMh+::omMMM-  +MMm    /MMd`    .NMMMMMMMy    -Nh`  o-   `oNm/`  
MMMMMMMMMMM:  yMMm    +MMd`    -NMMMMMMMMs    -hs`  /`  :MMo    
MMMMMMMMMMM- -NMMm    dMMd`    :MMMMMMMMMNh.    .`      .mMm`   
MMMMMMMMMMN-`hMMMm   :MMMd`    oMMMMMMMMMMMNo`         . :NM/   
MMMMMMMMMMN-oMMMMm  `dMMMd`   .mMMMMMMMMMMMMMm+`       sooMm-   
MMMMMMMMMMNyMMMMMm  sMMMMd`  `yMMMMMMMMMMMMMMMMd:      `+o/`    
MMMMMMMMMMMMMMMMMm`oMMMMMd`  sMMMMMMMMMMMMMMMMMMMy`             
MMMMMMMMMMMMMMMMMNhMMMMMMd``sMMMMMMMMMMMMMMMMMMMMMd.            
MMMMMMMMMMMMMMMMMMMMMMMMMd:dMMMMMMMMMMMMMMMMMMMMMMMh`           
MMMMMMMMMMMMMMMMMMMMMMMMMMMMMMMMMMMMMMMMMMMMMMMMMMMMy`          
MMMMMMMMMMMMMMMMMMMMMMMMMMMMMMMMMMMMMMMMMMMMMMMMMMMMMh.        /
MMMMMMMMMMMMMMMMMMMMMMMMMMMMMMMMMMMMMMMMMMMMMMMMMMMMMMNs:`  `/dM
MMMMMMMMMMMMMMMMMMMMMMMMMMMMMMMMMMMMMMMMMMMMMMMMMMMMMMMMMMNNMMMM

Protege.2007.DVDRip.XviD.MP3-kroimpa

7.3/10  
Users: (2,169 votes) 22 reviews | Critics: 37 reviews
Special agent Nick ( ) is deep undercover in the heart of Asia's lucrative crime trade as he plays protégé to one of the key players in the game...

Director: Tung-Shing Yee
Writers: Tung-Shing Yee, Man Hong Lung (additional writing), and 1 more credit »
Stars: Andy Lau, Daniel Wu and Louis Koo


Protege.2007.DVDRip.XviD.MP3-kroimpa-CD1

Video
ID                               : 0
Format                           : MPEG-4 Visual
Format profile                   : Advanced Simple@L5
Format settings, BVOP            : Yes
Format settings, QPel            : No
Format settings, GMC             : No warppoints
Format settings, Matrix          : Default (H.263)
Codec ID                         : XVID
Codec ID/Hint                    : XviD
Duration                         : 58mn 26s
Bit rate                         : 1 534 Kbps
Width                            : 720 pixels
Height                           : 304 pixels
Display aspect ratio             : 2.35:1
Frame rate                       : 23.976 fps
Color space                      : YUV
Chroma subsampling               : 4:2:0
Bit depth                        : 8 bits
Scan type                        : Progressive
Bits/(Pixel*Frame)               : 0.292
Stream size                      : 641 MiB (92%)
Writing library                  : XviD 1.2.1 (UTC 2008-12-04)

Audio
ID                               : 1
Format                           : MPEG Audio
Format version                   : Version 1
Format profile                   : Layer 3
Mode                             : Joint stereo
Mode extension                   : MS Stereo
Codec ID                         : 55
Codec ID/Hint                    : MP3
Duration                         : 58mn 26s
Bit rate mode                    : Variable
Bit rate                         : 129 Kbps
Nominal bit rate                 : 160 Kbps
Channel(s)                       : 2 channels
Sampling rate                    : 48.0 KHz
Stream size                      : 53.9 MiB (8%)
Alignment                        : Aligned on interleaves
Interleave, duration             : 24 ms (0.58 video frame)
Interleave, preload duration     : 175 ms
Title                            : VIDEO_TS
Writing library                  : LAME3.98 
Encoding settings                : -m j -V 4 -q 2 -lowpass 17.5 --abr 160


Protege.2007.DVDRip.XviD.MP3-kroimpa-CD2

Video
ID                               : 0
Format                           : MPEG-4 Visual
Format profile                   : Advanced Simple@L5
Format settings, BVOP            : Yes
Format settings, QPel            : No
Format settings, GMC             : No warppoints
Format settings, Matrix          : Default (H.263)
Codec ID                         : XVID
Codec ID/Hint                    : XviD
Duration                         : 50mn 23s
Bit rate                         : 1 741 Kbps
Width                            : 720 pixels
Height                           : 304 pixels
Display aspect ratio             : 2.35:1
Frame rate                       : 23.976 fps
Color space                      : YUV
Chroma subsampling               : 4:2:0
Bit depth                        : 8 bits
Scan type                        : Progressive
Bits/(Pixel*Frame)               : 0.332
Stream size                      : 628 MiB (93%)
Writing library                  : XviD 1.2.1 (UTC 2008-12-04)

Audio
ID                               : 1
Format                           : MPEG Audio
Format version                   : Version 1
Format profile                   : Layer 3
Mode                             : Joint stereo
Mode extension                   : MS Stereo
Codec ID                         : 55
Codec ID/Hint                    : MP3
Duration                         : 50mn 23s
Bit rate mode                    : Variable
Bit rate                         : 128 Kbps
Channel(s)                       : 2 channels
Sampling rate                    : 48.0 KHz
Stream size                      : 46.2 MiB (7%)
Alignment                        : Aligned on interleaves
Interleave, duration             : 24 ms (0.58 video frame)
Title                            : VIDEO_TS


English .srt subtitles included